<mxfile host="app.diagrams.net" modified="2023-10-16T09:16:26.999Z" agent="Mozilla/5.0 (Windows NT 10.0; Win64; x64) AppleWebKit/537.36 (KHTML, like Gecko) Chrome/118.0.0.0 Safari/537.36" version="22.0.4" etag="UU0Jo4JevyDXgdwRbuIu" type="github">
  <diagram name="Page-1" id="g4ODNpvM7Y1WKimk4lVJ">
    <mxGraphModel>
      <root>
        <mxCell id="0" />
        <mxCell id="1" parent="0" />
      </root>
    </mxGraphModel>
  </diagram>
</mxfile>
